%TF.GenerationSoftware,KiCad,Pcbnew,9.0.0*%
%TF.CreationDate,2025-04-15T21:18:47-03:00*%
%TF.ProjectId,Circuitos-atvd,43697263-7569-4746-9f73-2d617476642e,rev?*%
%TF.SameCoordinates,Original*%
%TF.FileFunction,Soldermask,Top*%
%TF.FilePolarity,Negative*%
%FSLAX46Y46*%
G04 Gerber Fmt 4.6, Leading zero omitted, Abs format (unit mm)*
G04 Created by KiCad (PCBNEW 9.0.0) date 2025-04-15 21:18:47*
%MOMM*%
%LPD*%
G01*
G04 APERTURE LIST*
G04 Aperture macros list*
%AMRoundRect*
0 Rectangle with rounded corners*
0 $1 Rounding radius*
0 $2 $3 $4 $5 $6 $7 $8 $9 X,Y pos of 4 corners*
0 Add a 4 corners polygon primitive as box body*
4,1,4,$2,$3,$4,$5,$6,$7,$8,$9,$2,$3,0*
0 Add four circle primitives for the rounded corners*
1,1,$1+$1,$2,$3*
1,1,$1+$1,$4,$5*
1,1,$1+$1,$6,$7*
1,1,$1+$1,$8,$9*
0 Add four rect primitives between the rounded corners*
20,1,$1+$1,$2,$3,$4,$5,0*
20,1,$1+$1,$4,$5,$6,$7,0*
20,1,$1+$1,$6,$7,$8,$9,0*
20,1,$1+$1,$8,$9,$2,$3,0*%
G04 Aperture macros list end*
%ADD10RoundRect,0.100000X-0.130000X-0.100000X0.130000X-0.100000X0.130000X0.100000X-0.130000X0.100000X0*%
%ADD11R,3.500000X1.200000*%
%ADD12RoundRect,0.218750X-0.218750X-0.256250X0.218750X-0.256250X0.218750X0.256250X-0.218750X0.256250X0*%
%ADD13RoundRect,0.140000X-0.140000X-0.170000X0.140000X-0.170000X0.140000X0.170000X-0.140000X0.170000X0*%
%ADD14RoundRect,0.050000X-0.375000X-0.050000X0.375000X-0.050000X0.375000X0.050000X-0.375000X0.050000X0*%
%ADD15RoundRect,0.050000X-0.050000X-0.375000X0.050000X-0.375000X0.050000X0.375000X-0.050000X0.375000X0*%
%ADD16R,4.200000X4.200000*%
G04 APERTURE END LIST*
D10*
%TO.C,L3*%
X123180000Y-109270000D03*
X123820000Y-109270000D03*
%TD*%
%TO.C,C5*%
X116680000Y-111000000D03*
X117320000Y-111000000D03*
%TD*%
D11*
%TO.C,X2*%
X160250000Y-114000000D03*
X165750000Y-114000000D03*
%TD*%
D10*
%TO.C,C10*%
X119785000Y-109270000D03*
X120425000Y-109270000D03*
%TD*%
%TO.C,FB1*%
X123335000Y-105500000D03*
X123975000Y-105500000D03*
%TD*%
%TO.C,C1*%
X116680000Y-105500000D03*
X117320000Y-105500000D03*
%TD*%
D12*
%TO.C,L1*%
X133425000Y-103000000D03*
X135000000Y-103000000D03*
%TD*%
D10*
%TO.C,C12*%
X119785000Y-112770000D03*
X120425000Y-112770000D03*
%TD*%
%TO.C,C13*%
X119785000Y-114520000D03*
X120425000Y-114520000D03*
%TD*%
%TO.C,C9*%
X119785000Y-107520000D03*
X120425000Y-107520000D03*
%TD*%
%TO.C,L4*%
X123335000Y-111020000D03*
X123975000Y-111020000D03*
%TD*%
%TO.C,R1*%
X123335000Y-112770000D03*
X123975000Y-112770000D03*
%TD*%
%TO.C,C11*%
X119785000Y-111020000D03*
X120425000Y-111020000D03*
%TD*%
D13*
%TO.C,C3*%
X133520000Y-106000000D03*
X134480000Y-106000000D03*
%TD*%
D10*
%TO.C,L2*%
X123180000Y-107500000D03*
X123820000Y-107500000D03*
%TD*%
D14*
%TO.C,U1*%
X147750000Y-103250000D03*
X147750000Y-103650000D03*
X147750000Y-104050000D03*
X147750000Y-104450000D03*
X147750000Y-104850000D03*
X147750000Y-105250000D03*
X147750000Y-105650000D03*
X147750000Y-106050000D03*
X147750000Y-106450000D03*
X147750000Y-106850000D03*
X147750000Y-107250000D03*
X147750000Y-107650000D03*
D15*
X148500000Y-108400000D03*
X148900000Y-108400000D03*
X149300000Y-108400000D03*
X149700000Y-108400000D03*
X150100000Y-108400000D03*
X150500000Y-108400000D03*
X150900000Y-108400000D03*
X151300000Y-108400000D03*
X151700000Y-108400000D03*
X152100000Y-108400000D03*
X152500000Y-108400000D03*
X152900000Y-108400000D03*
D14*
X153650000Y-107650000D03*
X153650000Y-107250000D03*
X153650000Y-106850000D03*
X153650000Y-106450000D03*
X153650000Y-106050000D03*
X153650000Y-105650000D03*
X153650000Y-105250000D03*
X153650000Y-104850000D03*
X153650000Y-104450000D03*
X153650000Y-104050000D03*
X153650000Y-103650000D03*
X153650000Y-103250000D03*
D15*
X152900000Y-102500000D03*
X152500000Y-102500000D03*
X152100000Y-102500000D03*
X151700000Y-102500000D03*
X151300000Y-102500000D03*
X150900000Y-102500000D03*
X150500000Y-102500000D03*
X150100000Y-102500000D03*
X149700000Y-102500000D03*
X149300000Y-102500000D03*
X148900000Y-102500000D03*
X148500000Y-102500000D03*
D16*
X150700000Y-105450000D03*
%TD*%
D10*
%TO.C,C8*%
X119680000Y-105500000D03*
X120320000Y-105500000D03*
%TD*%
%TO.C,C4*%
X116680000Y-109270000D03*
X117320000Y-109270000D03*
%TD*%
%TO.C,C2*%
X116680000Y-107500000D03*
X117320000Y-107500000D03*
%TD*%
%TO.C,C6*%
X116680000Y-112770000D03*
X117320000Y-112770000D03*
%TD*%
%TO.C,C7*%
X116835000Y-114520000D03*
X117475000Y-114520000D03*
%TD*%
M02*
