%TF.GenerationSoftware,KiCad,Pcbnew,9.0.0*%
%TF.CreationDate,2025-04-15T21:18:47-03:00*%
%TF.ProjectId,Circuitos-atvd,43697263-7569-4746-9f73-2d617476642e,rev?*%
%TF.SameCoordinates,Original*%
%TF.FileFunction,Copper,L1,Top*%
%TF.FilePolarity,Positive*%
%FSLAX46Y46*%
G04 Gerber Fmt 4.6, Leading zero omitted, Abs format (unit mm)*
G04 Created by KiCad (PCBNEW 9.0.0) date 2025-04-15 21:18:47*
%MOMM*%
%LPD*%
G01*
G04 APERTURE LIST*
G04 Aperture macros list*
%AMRoundRect*
0 Rectangle with rounded corners*
0 $1 Rounding radius*
0 $2 $3 $4 $5 $6 $7 $8 $9 X,Y pos of 4 corners*
0 Add a 4 corners polygon primitive as box body*
4,1,4,$2,$3,$4,$5,$6,$7,$8,$9,$2,$3,0*
0 Add four circle primitives for the rounded corners*
1,1,$1+$1,$2,$3*
1,1,$1+$1,$4,$5*
1,1,$1+$1,$6,$7*
1,1,$1+$1,$8,$9*
0 Add four rect primitives between the rounded corners*
20,1,$1+$1,$2,$3,$4,$5,0*
20,1,$1+$1,$4,$5,$6,$7,0*
20,1,$1+$1,$6,$7,$8,$9,0*
20,1,$1+$1,$8,$9,$2,$3,0*%
G04 Aperture macros list end*
%TA.AperFunction,Conductor*%
%ADD10C,0.200000*%
%TD*%
%TA.AperFunction,SMDPad,CuDef*%
%ADD11RoundRect,0.100000X-0.130000X-0.100000X0.130000X-0.100000X0.130000X0.100000X-0.130000X0.100000X0*%
%TD*%
%TA.AperFunction,SMDPad,CuDef*%
%ADD12R,3.500000X1.200000*%
%TD*%
%TA.AperFunction,SMDPad,CuDef*%
%ADD13RoundRect,0.218750X-0.218750X-0.256250X0.218750X-0.256250X0.218750X0.256250X-0.218750X0.256250X0*%
%TD*%
%TA.AperFunction,SMDPad,CuDef*%
%ADD14RoundRect,0.140000X-0.140000X-0.170000X0.140000X-0.170000X0.140000X0.170000X-0.140000X0.170000X0*%
%TD*%
%TA.AperFunction,SMDPad,CuDef*%
%ADD15RoundRect,0.050000X-0.375000X-0.050000X0.375000X-0.050000X0.375000X0.050000X-0.375000X0.050000X0*%
%TD*%
%TA.AperFunction,SMDPad,CuDef*%
%ADD16RoundRect,0.050000X-0.050000X-0.375000X0.050000X-0.375000X0.050000X0.375000X-0.050000X0.375000X0*%
%TD*%
%TA.AperFunction,HeatsinkPad*%
%ADD17C,0.500000*%
%TD*%
%TA.AperFunction,HeatsinkPad*%
%ADD18R,4.200000X4.200000*%
%TD*%
G04 APERTURE END LIST*
%TO.N,unconnected-(X2-XC2-Pad2)*%
D10*
X99000000Y-83500000D02*
X174000000Y-83500000D01*
X174000000Y-127500000D01*
X99000000Y-127500000D01*
X99000000Y-83500000D01*
%TD*%
D11*
%TO.P,L3,1,1*%
%TO.N,Net-(C6-Pad1)*%
X123180000Y-109270000D03*
%TO.P,L3,2,2*%
%TO.N,Net-(C9-Pad1)*%
X123820000Y-109270000D03*
%TD*%
%TO.P,C5,1*%
%TO.N,/DECA*%
X116680000Y-111000000D03*
%TO.P,C5,2*%
%TO.N,GND*%
X117320000Y-111000000D03*
%TD*%
D12*
%TO.P,X2,1,XC1*%
%TO.N,Net-(U1-XC1)*%
X160250000Y-114000000D03*
%TO.P,X2,2,XC2*%
%TO.N,unconnected-(U1-XC2-Pad35)*%
X165750000Y-114000000D03*
%TD*%
D11*
%TO.P,C10,1*%
%TO.N,VDD_nRF*%
X119785000Y-109270000D03*
%TO.P,C10,2*%
%TO.N,GND*%
X120425000Y-109270000D03*
%TD*%
%TO.P,FB1,1*%
%TO.N,Net-(U1-DECD)*%
X123335000Y-105500000D03*
%TO.P,FB1,2*%
%TO.N,/DECA*%
X123975000Y-105500000D03*
%TD*%
%TO.P,C1,1*%
%TO.N,Net-(U1-DECD)*%
X116680000Y-105500000D03*
%TO.P,C1,2*%
%TO.N,GND*%
X117320000Y-105500000D03*
%TD*%
D13*
%TO.P,L1,1,1*%
%TO.N,Net-(U1-DECD)*%
X133425000Y-103000000D03*
%TO.P,L1,2,2*%
%TO.N,Net-(U1-DCC)*%
X135000000Y-103000000D03*
%TD*%
D11*
%TO.P,C12,1*%
%TO.N,/DECA*%
X119785000Y-112770000D03*
%TO.P,C12,2*%
%TO.N,GND*%
X120425000Y-112770000D03*
%TD*%
%TO.P,C13,1*%
%TO.N,Net-(U1-~{RESET})*%
X119785000Y-114520000D03*
%TO.P,C13,2*%
%TO.N,GND*%
X120425000Y-114520000D03*
%TD*%
%TO.P,C9,1*%
%TO.N,Net-(C9-Pad1)*%
X119785000Y-107520000D03*
%TO.P,C9,2*%
%TO.N,GND*%
X120425000Y-107520000D03*
%TD*%
%TO.P,L4,1,1*%
%TO.N,Net-(C9-Pad1)*%
X123335000Y-111020000D03*
%TO.P,L4,2,2*%
%TO.N,/RF*%
X123975000Y-111020000D03*
%TD*%
%TO.P,R1,1*%
%TO.N,Net-(U1-~{RESET})*%
X123335000Y-112770000D03*
%TO.P,R1,2*%
%TO.N,/NRESET*%
X123975000Y-112770000D03*
%TD*%
%TO.P,C11,1*%
%TO.N,/RF*%
X119785000Y-111020000D03*
%TO.P,C11,2*%
%TO.N,GND*%
X120425000Y-111020000D03*
%TD*%
D14*
%TO.P,C3,1*%
%TO.N,VDD_nRF*%
X133520000Y-106000000D03*
%TO.P,C3,2*%
%TO.N,GND*%
X134480000Y-106000000D03*
%TD*%
D11*
%TO.P,L2,1,1*%
%TO.N,Net-(U1-ANT)*%
X123180000Y-107500000D03*
%TO.P,L2,2,2*%
%TO.N,Net-(C6-Pad1)*%
X123820000Y-107500000D03*
%TD*%
D15*
%TO.P,U1,1,1*%
%TO.N,unconnected-(U1-Pad1)*%
X147750000Y-103250000D03*
%TO.P,U1,2,2*%
%TO.N,unconnected-(U1-Pad2)*%
X147750000Y-103650000D03*
%TO.P,U1,3,3*%
%TO.N,unconnected-(U1-Pad3)*%
X147750000Y-104050000D03*
%TO.P,U1,4,4*%
%TO.N,unconnected-(U1-Pad4)*%
X147750000Y-104450000D03*
%TO.P,U1,5,5*%
%TO.N,unconnected-(U1-Pad5)*%
X147750000Y-104850000D03*
%TO.P,U1,6,6*%
%TO.N,unconnected-(U1-Pad6)*%
X147750000Y-105250000D03*
%TO.P,U1,7,7*%
%TO.N,unconnected-(U1-Pad7)*%
X147750000Y-105650000D03*
%TO.P,U1,8,8*%
%TO.N,unconnected-(U1-Pad8)*%
X147750000Y-106050000D03*
%TO.P,U1,9,9*%
%TO.N,unconnected-(U1-Pad9)*%
X147750000Y-106450000D03*
%TO.P,U1,10,VDD*%
%TO.N,VDD_nRF*%
X147750000Y-106850000D03*
%TO.P,U1,11,11*%
%TO.N,unconnected-(U1-Pad11)*%
X147750000Y-107250000D03*
%TO.P,U1,12,12*%
%TO.N,unconnected-(U1-Pad12)*%
X147750000Y-107650000D03*
D16*
%TO.P,U1,13,13*%
%TO.N,unconnected-(U1-Pad13)*%
X148500000Y-108400000D03*
%TO.P,U1,14,14*%
%TO.N,unconnected-(U1-Pad14)*%
X148900000Y-108400000D03*
%TO.P,U1,15,15*%
%TO.N,unconnected-(U1-Pad15)*%
X149300000Y-108400000D03*
%TO.P,U1,16,16*%
%TO.N,unconnected-(U1-Pad16)*%
X149700000Y-108400000D03*
%TO.P,U1,17,17*%
%TO.N,unconnected-(U1-Pad17)*%
X150100000Y-108400000D03*
%TO.P,U1,18,18*%
%TO.N,unconnected-(U1-Pad18)*%
X150500000Y-108400000D03*
%TO.P,U1,19,19*%
%TO.N,unconnected-(U1-Pad19)*%
X150900000Y-108400000D03*
%TO.P,U1,20,20*%
%TO.N,unconnected-(U1-Pad20)*%
X151300000Y-108400000D03*
%TO.P,U1,21,21*%
%TO.N,unconnected-(U1-Pad21)*%
X151700000Y-108400000D03*
%TO.P,U1,22,VDD*%
%TO.N,VDD_nRF*%
X152100000Y-108400000D03*
%TO.P,U1,23,23*%
%TO.N,unconnected-(U1-Pad23)*%
X152500000Y-108400000D03*
%TO.P,U1,24,24*%
%TO.N,unconnected-(U1-Pad24)*%
X152900000Y-108400000D03*
D15*
%TO.P,U1,25,SWDIO*%
%TO.N,/SWDIO*%
X153650000Y-107650000D03*
%TO.P,U1,26,SWDCLX*%
%TO.N,/SWDCLK*%
X153650000Y-107250000D03*
%TO.P,U1,27,27*%
%TO.N,unconnected-(U1-Pad27)*%
X153650000Y-106850000D03*
%TO.P,U1,28,28*%
%TO.N,unconnected-(U1-Pad28)*%
X153650000Y-106450000D03*
%TO.P,U1,29,29*%
%TO.N,unconnected-(U1-Pad29)*%
X153650000Y-106050000D03*
%TO.P,U1,30,~{RESET}*%
%TO.N,Net-(U1-~{RESET})*%
X153650000Y-105650000D03*
%TO.P,U1,31,ANT*%
%TO.N,Net-(U1-ANT)*%
X153650000Y-105250000D03*
%TO.P,U1,32,VSS_PA*%
%TO.N,Net-(U1-VSS_PA)*%
X153650000Y-104850000D03*
%TO.P,U1,33,DECRF*%
%TO.N,/DECA*%
X153650000Y-104450000D03*
%TO.P,U1,34,XC1*%
%TO.N,Net-(U1-XC1)*%
X153650000Y-104050000D03*
%TO.P,U1,35,XC2*%
%TO.N,unconnected-(U1-XC2-Pad35)*%
X153650000Y-103650000D03*
%TO.P,U1,36,VDD*%
%TO.N,VDD_nRF*%
X153650000Y-103250000D03*
D16*
%TO.P,U1,37,37*%
%TO.N,unconnected-(U1-Pad37)*%
X152900000Y-102500000D03*
%TO.P,U1,38,38*%
%TO.N,unconnected-(U1-Pad38)*%
X152500000Y-102500000D03*
%TO.P,U1,39,39*%
%TO.N,unconnected-(U1-Pad39)*%
X152100000Y-102500000D03*
%TO.P,U1,40,40*%
%TO.N,unconnected-(U1-Pad40)*%
X151700000Y-102500000D03*
%TO.P,U1,41,41*%
%TO.N,unconnected-(U1-Pad41)*%
X151300000Y-102500000D03*
%TO.P,U1,42,42*%
%TO.N,unconnected-(U1-Pad42)*%
X150900000Y-102500000D03*
%TO.P,U1,43,DECA*%
%TO.N,/DECA*%
X150500000Y-102500000D03*
%TO.P,U1,44,VSS*%
%TO.N,GND*%
X150100000Y-102500000D03*
%TO.P,U1,45,DECD*%
%TO.N,Net-(U1-DECD)*%
X149700000Y-102500000D03*
%TO.P,U1,46,DCC*%
%TO.N,Net-(U1-DCC)*%
X149300000Y-102500000D03*
%TO.P,U1,47,VDD*%
%TO.N,VDD_nRF*%
X148900000Y-102500000D03*
%TO.P,U1,48,VDD*%
X148500000Y-102500000D03*
D17*
%TO.P,U1,49,VSS*%
%TO.N,GND*%
X149125000Y-103875000D03*
X149125000Y-104925000D03*
X149125000Y-105975000D03*
X149125000Y-107025000D03*
X150175000Y-103875000D03*
X150175000Y-104925000D03*
X150175000Y-105975000D03*
X150175000Y-107025000D03*
D18*
X150700000Y-105450000D03*
D17*
X151225000Y-103875000D03*
X151225000Y-104925000D03*
X151225000Y-105975000D03*
X151225000Y-107025000D03*
X152275000Y-103875000D03*
X152275000Y-104925000D03*
X152275000Y-105975000D03*
X152275000Y-107025000D03*
%TD*%
D11*
%TO.P,C8,1*%
%TO.N,VDD_nRF*%
X119680000Y-105500000D03*
%TO.P,C8,2*%
%TO.N,GND*%
X120320000Y-105500000D03*
%TD*%
%TO.P,C4,1*%
%TO.N,VDD_nRF*%
X116680000Y-109270000D03*
%TO.P,C4,2*%
%TO.N,GND*%
X117320000Y-109270000D03*
%TD*%
%TO.P,C2,1*%
%TO.N,/DECA*%
X116680000Y-107500000D03*
%TO.P,C2,2*%
%TO.N,GND*%
X117320000Y-107500000D03*
%TD*%
%TO.P,C6,1*%
%TO.N,Net-(C6-Pad1)*%
X116680000Y-112770000D03*
%TO.P,C6,2*%
%TO.N,Net-(U1-VSS_PA)*%
X117320000Y-112770000D03*
%TD*%
%TO.P,C7,1*%
%TO.N,VDD_nRF*%
X116835000Y-114520000D03*
%TO.P,C7,2*%
%TO.N,GND*%
X117475000Y-114520000D03*
%TD*%
M02*
