%TF.GenerationSoftware,KiCad,Pcbnew,9.0.0*%
%TF.CreationDate,2025-04-15T21:18:47-03:00*%
%TF.ProjectId,Circuitos-atvd,43697263-7569-4746-9f73-2d617476642e,rev?*%
%TF.SameCoordinates,Original*%
%TF.FileFunction,Legend,Top*%
%TF.FilePolarity,Positive*%
%FSLAX46Y46*%
G04 Gerber Fmt 4.6, Leading zero omitted, Abs format (unit mm)*
G04 Created by KiCad (PCBNEW 9.0.0) date 2025-04-15 21:18:47*
%MOMM*%
%LPD*%
G01*
G04 APERTURE LIST*
%ADD10C,0.150000*%
%ADD11C,0.120000*%
G04 APERTURE END LIST*
D10*
X123333333Y-108674819D02*
X122857143Y-108674819D01*
X122857143Y-108674819D02*
X122857143Y-107674819D01*
X123571429Y-107674819D02*
X124190476Y-107674819D01*
X124190476Y-107674819D02*
X123857143Y-108055771D01*
X123857143Y-108055771D02*
X124000000Y-108055771D01*
X124000000Y-108055771D02*
X124095238Y-108103390D01*
X124095238Y-108103390D02*
X124142857Y-108151009D01*
X124142857Y-108151009D02*
X124190476Y-108246247D01*
X124190476Y-108246247D02*
X124190476Y-108484342D01*
X124190476Y-108484342D02*
X124142857Y-108579580D01*
X124142857Y-108579580D02*
X124095238Y-108627200D01*
X124095238Y-108627200D02*
X124000000Y-108674819D01*
X124000000Y-108674819D02*
X123714286Y-108674819D01*
X123714286Y-108674819D02*
X123619048Y-108627200D01*
X123619048Y-108627200D02*
X123571429Y-108579580D01*
X116833333Y-110309580D02*
X116785714Y-110357200D01*
X116785714Y-110357200D02*
X116642857Y-110404819D01*
X116642857Y-110404819D02*
X116547619Y-110404819D01*
X116547619Y-110404819D02*
X116404762Y-110357200D01*
X116404762Y-110357200D02*
X116309524Y-110261961D01*
X116309524Y-110261961D02*
X116261905Y-110166723D01*
X116261905Y-110166723D02*
X116214286Y-109976247D01*
X116214286Y-109976247D02*
X116214286Y-109833390D01*
X116214286Y-109833390D02*
X116261905Y-109642914D01*
X116261905Y-109642914D02*
X116309524Y-109547676D01*
X116309524Y-109547676D02*
X116404762Y-109452438D01*
X116404762Y-109452438D02*
X116547619Y-109404819D01*
X116547619Y-109404819D02*
X116642857Y-109404819D01*
X116642857Y-109404819D02*
X116785714Y-109452438D01*
X116785714Y-109452438D02*
X116833333Y-109500057D01*
X117738095Y-109404819D02*
X117261905Y-109404819D01*
X117261905Y-109404819D02*
X117214286Y-109881009D01*
X117214286Y-109881009D02*
X117261905Y-109833390D01*
X117261905Y-109833390D02*
X117357143Y-109785771D01*
X117357143Y-109785771D02*
X117595238Y-109785771D01*
X117595238Y-109785771D02*
X117690476Y-109833390D01*
X117690476Y-109833390D02*
X117738095Y-109881009D01*
X117738095Y-109881009D02*
X117785714Y-109976247D01*
X117785714Y-109976247D02*
X117785714Y-110214342D01*
X117785714Y-110214342D02*
X117738095Y-110309580D01*
X117738095Y-110309580D02*
X117690476Y-110357200D01*
X117690476Y-110357200D02*
X117595238Y-110404819D01*
X117595238Y-110404819D02*
X117357143Y-110404819D01*
X117357143Y-110404819D02*
X117261905Y-110357200D01*
X117261905Y-110357200D02*
X117214286Y-110309580D01*
X162190476Y-110254819D02*
X162857142Y-111254819D01*
X162857142Y-110254819D02*
X162190476Y-111254819D01*
X163190476Y-110350057D02*
X163238095Y-110302438D01*
X163238095Y-110302438D02*
X163333333Y-110254819D01*
X163333333Y-110254819D02*
X163571428Y-110254819D01*
X163571428Y-110254819D02*
X163666666Y-110302438D01*
X163666666Y-110302438D02*
X163714285Y-110350057D01*
X163714285Y-110350057D02*
X163761904Y-110445295D01*
X163761904Y-110445295D02*
X163761904Y-110540533D01*
X163761904Y-110540533D02*
X163714285Y-110683390D01*
X163714285Y-110683390D02*
X163142857Y-111254819D01*
X163142857Y-111254819D02*
X163761904Y-111254819D01*
X119462142Y-108579580D02*
X119414523Y-108627200D01*
X119414523Y-108627200D02*
X119271666Y-108674819D01*
X119271666Y-108674819D02*
X119176428Y-108674819D01*
X119176428Y-108674819D02*
X119033571Y-108627200D01*
X119033571Y-108627200D02*
X118938333Y-108531961D01*
X118938333Y-108531961D02*
X118890714Y-108436723D01*
X118890714Y-108436723D02*
X118843095Y-108246247D01*
X118843095Y-108246247D02*
X118843095Y-108103390D01*
X118843095Y-108103390D02*
X118890714Y-107912914D01*
X118890714Y-107912914D02*
X118938333Y-107817676D01*
X118938333Y-107817676D02*
X119033571Y-107722438D01*
X119033571Y-107722438D02*
X119176428Y-107674819D01*
X119176428Y-107674819D02*
X119271666Y-107674819D01*
X119271666Y-107674819D02*
X119414523Y-107722438D01*
X119414523Y-107722438D02*
X119462142Y-107770057D01*
X120414523Y-108674819D02*
X119843095Y-108674819D01*
X120128809Y-108674819D02*
X120128809Y-107674819D01*
X120128809Y-107674819D02*
X120033571Y-107817676D01*
X120033571Y-107817676D02*
X119938333Y-107912914D01*
X119938333Y-107912914D02*
X119843095Y-107960533D01*
X121033571Y-107674819D02*
X121128809Y-107674819D01*
X121128809Y-107674819D02*
X121224047Y-107722438D01*
X121224047Y-107722438D02*
X121271666Y-107770057D01*
X121271666Y-107770057D02*
X121319285Y-107865295D01*
X121319285Y-107865295D02*
X121366904Y-108055771D01*
X121366904Y-108055771D02*
X121366904Y-108293866D01*
X121366904Y-108293866D02*
X121319285Y-108484342D01*
X121319285Y-108484342D02*
X121271666Y-108579580D01*
X121271666Y-108579580D02*
X121224047Y-108627200D01*
X121224047Y-108627200D02*
X121128809Y-108674819D01*
X121128809Y-108674819D02*
X121033571Y-108674819D01*
X121033571Y-108674819D02*
X120938333Y-108627200D01*
X120938333Y-108627200D02*
X120890714Y-108579580D01*
X120890714Y-108579580D02*
X120843095Y-108484342D01*
X120843095Y-108484342D02*
X120795476Y-108293866D01*
X120795476Y-108293866D02*
X120795476Y-108055771D01*
X120795476Y-108055771D02*
X120843095Y-107865295D01*
X120843095Y-107865295D02*
X120890714Y-107770057D01*
X120890714Y-107770057D02*
X120938333Y-107722438D01*
X120938333Y-107722438D02*
X121033571Y-107674819D01*
X122821666Y-104381009D02*
X122488333Y-104381009D01*
X122488333Y-104904819D02*
X122488333Y-103904819D01*
X122488333Y-103904819D02*
X122964523Y-103904819D01*
X123678809Y-104381009D02*
X123821666Y-104428628D01*
X123821666Y-104428628D02*
X123869285Y-104476247D01*
X123869285Y-104476247D02*
X123916904Y-104571485D01*
X123916904Y-104571485D02*
X123916904Y-104714342D01*
X123916904Y-104714342D02*
X123869285Y-104809580D01*
X123869285Y-104809580D02*
X123821666Y-104857200D01*
X123821666Y-104857200D02*
X123726428Y-104904819D01*
X123726428Y-104904819D02*
X123345476Y-104904819D01*
X123345476Y-104904819D02*
X123345476Y-103904819D01*
X123345476Y-103904819D02*
X123678809Y-103904819D01*
X123678809Y-103904819D02*
X123774047Y-103952438D01*
X123774047Y-103952438D02*
X123821666Y-104000057D01*
X123821666Y-104000057D02*
X123869285Y-104095295D01*
X123869285Y-104095295D02*
X123869285Y-104190533D01*
X123869285Y-104190533D02*
X123821666Y-104285771D01*
X123821666Y-104285771D02*
X123774047Y-104333390D01*
X123774047Y-104333390D02*
X123678809Y-104381009D01*
X123678809Y-104381009D02*
X123345476Y-104381009D01*
X124869285Y-104904819D02*
X124297857Y-104904819D01*
X124583571Y-104904819D02*
X124583571Y-103904819D01*
X124583571Y-103904819D02*
X124488333Y-104047676D01*
X124488333Y-104047676D02*
X124393095Y-104142914D01*
X124393095Y-104142914D02*
X124297857Y-104190533D01*
X116833333Y-104809580D02*
X116785714Y-104857200D01*
X116785714Y-104857200D02*
X116642857Y-104904819D01*
X116642857Y-104904819D02*
X116547619Y-104904819D01*
X116547619Y-104904819D02*
X116404762Y-104857200D01*
X116404762Y-104857200D02*
X116309524Y-104761961D01*
X116309524Y-104761961D02*
X116261905Y-104666723D01*
X116261905Y-104666723D02*
X116214286Y-104476247D01*
X116214286Y-104476247D02*
X116214286Y-104333390D01*
X116214286Y-104333390D02*
X116261905Y-104142914D01*
X116261905Y-104142914D02*
X116309524Y-104047676D01*
X116309524Y-104047676D02*
X116404762Y-103952438D01*
X116404762Y-103952438D02*
X116547619Y-103904819D01*
X116547619Y-103904819D02*
X116642857Y-103904819D01*
X116642857Y-103904819D02*
X116785714Y-103952438D01*
X116785714Y-103952438D02*
X116833333Y-104000057D01*
X117785714Y-104904819D02*
X117214286Y-104904819D01*
X117500000Y-104904819D02*
X117500000Y-103904819D01*
X117500000Y-103904819D02*
X117404762Y-104047676D01*
X117404762Y-104047676D02*
X117309524Y-104142914D01*
X117309524Y-104142914D02*
X117214286Y-104190533D01*
X134045833Y-102024819D02*
X133569643Y-102024819D01*
X133569643Y-102024819D02*
X133569643Y-101024819D01*
X134902976Y-102024819D02*
X134331548Y-102024819D01*
X134617262Y-102024819D02*
X134617262Y-101024819D01*
X134617262Y-101024819D02*
X134522024Y-101167676D01*
X134522024Y-101167676D02*
X134426786Y-101262914D01*
X134426786Y-101262914D02*
X134331548Y-101310533D01*
X119462142Y-112079580D02*
X119414523Y-112127200D01*
X119414523Y-112127200D02*
X119271666Y-112174819D01*
X119271666Y-112174819D02*
X119176428Y-112174819D01*
X119176428Y-112174819D02*
X119033571Y-112127200D01*
X119033571Y-112127200D02*
X118938333Y-112031961D01*
X118938333Y-112031961D02*
X118890714Y-111936723D01*
X118890714Y-111936723D02*
X118843095Y-111746247D01*
X118843095Y-111746247D02*
X118843095Y-111603390D01*
X118843095Y-111603390D02*
X118890714Y-111412914D01*
X118890714Y-111412914D02*
X118938333Y-111317676D01*
X118938333Y-111317676D02*
X119033571Y-111222438D01*
X119033571Y-111222438D02*
X119176428Y-111174819D01*
X119176428Y-111174819D02*
X119271666Y-111174819D01*
X119271666Y-111174819D02*
X119414523Y-111222438D01*
X119414523Y-111222438D02*
X119462142Y-111270057D01*
X120414523Y-112174819D02*
X119843095Y-112174819D01*
X120128809Y-112174819D02*
X120128809Y-111174819D01*
X120128809Y-111174819D02*
X120033571Y-111317676D01*
X120033571Y-111317676D02*
X119938333Y-111412914D01*
X119938333Y-111412914D02*
X119843095Y-111460533D01*
X120795476Y-111270057D02*
X120843095Y-111222438D01*
X120843095Y-111222438D02*
X120938333Y-111174819D01*
X120938333Y-111174819D02*
X121176428Y-111174819D01*
X121176428Y-111174819D02*
X121271666Y-111222438D01*
X121271666Y-111222438D02*
X121319285Y-111270057D01*
X121319285Y-111270057D02*
X121366904Y-111365295D01*
X121366904Y-111365295D02*
X121366904Y-111460533D01*
X121366904Y-111460533D02*
X121319285Y-111603390D01*
X121319285Y-111603390D02*
X120747857Y-112174819D01*
X120747857Y-112174819D02*
X121366904Y-112174819D01*
X119462142Y-113829580D02*
X119414523Y-113877200D01*
X119414523Y-113877200D02*
X119271666Y-113924819D01*
X119271666Y-113924819D02*
X119176428Y-113924819D01*
X119176428Y-113924819D02*
X119033571Y-113877200D01*
X119033571Y-113877200D02*
X118938333Y-113781961D01*
X118938333Y-113781961D02*
X118890714Y-113686723D01*
X118890714Y-113686723D02*
X118843095Y-113496247D01*
X118843095Y-113496247D02*
X118843095Y-113353390D01*
X118843095Y-113353390D02*
X118890714Y-113162914D01*
X118890714Y-113162914D02*
X118938333Y-113067676D01*
X118938333Y-113067676D02*
X119033571Y-112972438D01*
X119033571Y-112972438D02*
X119176428Y-112924819D01*
X119176428Y-112924819D02*
X119271666Y-112924819D01*
X119271666Y-112924819D02*
X119414523Y-112972438D01*
X119414523Y-112972438D02*
X119462142Y-113020057D01*
X120414523Y-113924819D02*
X119843095Y-113924819D01*
X120128809Y-113924819D02*
X120128809Y-112924819D01*
X120128809Y-112924819D02*
X120033571Y-113067676D01*
X120033571Y-113067676D02*
X119938333Y-113162914D01*
X119938333Y-113162914D02*
X119843095Y-113210533D01*
X120747857Y-112924819D02*
X121366904Y-112924819D01*
X121366904Y-112924819D02*
X121033571Y-113305771D01*
X121033571Y-113305771D02*
X121176428Y-113305771D01*
X121176428Y-113305771D02*
X121271666Y-113353390D01*
X121271666Y-113353390D02*
X121319285Y-113401009D01*
X121319285Y-113401009D02*
X121366904Y-113496247D01*
X121366904Y-113496247D02*
X121366904Y-113734342D01*
X121366904Y-113734342D02*
X121319285Y-113829580D01*
X121319285Y-113829580D02*
X121271666Y-113877200D01*
X121271666Y-113877200D02*
X121176428Y-113924819D01*
X121176428Y-113924819D02*
X120890714Y-113924819D01*
X120890714Y-113924819D02*
X120795476Y-113877200D01*
X120795476Y-113877200D02*
X120747857Y-113829580D01*
X119938333Y-106829580D02*
X119890714Y-106877200D01*
X119890714Y-106877200D02*
X119747857Y-106924819D01*
X119747857Y-106924819D02*
X119652619Y-106924819D01*
X119652619Y-106924819D02*
X119509762Y-106877200D01*
X119509762Y-106877200D02*
X119414524Y-106781961D01*
X119414524Y-106781961D02*
X119366905Y-106686723D01*
X119366905Y-106686723D02*
X119319286Y-106496247D01*
X119319286Y-106496247D02*
X119319286Y-106353390D01*
X119319286Y-106353390D02*
X119366905Y-106162914D01*
X119366905Y-106162914D02*
X119414524Y-106067676D01*
X119414524Y-106067676D02*
X119509762Y-105972438D01*
X119509762Y-105972438D02*
X119652619Y-105924819D01*
X119652619Y-105924819D02*
X119747857Y-105924819D01*
X119747857Y-105924819D02*
X119890714Y-105972438D01*
X119890714Y-105972438D02*
X119938333Y-106020057D01*
X120414524Y-106924819D02*
X120605000Y-106924819D01*
X120605000Y-106924819D02*
X120700238Y-106877200D01*
X120700238Y-106877200D02*
X120747857Y-106829580D01*
X120747857Y-106829580D02*
X120843095Y-106686723D01*
X120843095Y-106686723D02*
X120890714Y-106496247D01*
X120890714Y-106496247D02*
X120890714Y-106115295D01*
X120890714Y-106115295D02*
X120843095Y-106020057D01*
X120843095Y-106020057D02*
X120795476Y-105972438D01*
X120795476Y-105972438D02*
X120700238Y-105924819D01*
X120700238Y-105924819D02*
X120509762Y-105924819D01*
X120509762Y-105924819D02*
X120414524Y-105972438D01*
X120414524Y-105972438D02*
X120366905Y-106020057D01*
X120366905Y-106020057D02*
X120319286Y-106115295D01*
X120319286Y-106115295D02*
X120319286Y-106353390D01*
X120319286Y-106353390D02*
X120366905Y-106448628D01*
X120366905Y-106448628D02*
X120414524Y-106496247D01*
X120414524Y-106496247D02*
X120509762Y-106543866D01*
X120509762Y-106543866D02*
X120700238Y-106543866D01*
X120700238Y-106543866D02*
X120795476Y-106496247D01*
X120795476Y-106496247D02*
X120843095Y-106448628D01*
X120843095Y-106448628D02*
X120890714Y-106353390D01*
X123488333Y-110424819D02*
X123012143Y-110424819D01*
X123012143Y-110424819D02*
X123012143Y-109424819D01*
X124250238Y-109758152D02*
X124250238Y-110424819D01*
X124012143Y-109377200D02*
X123774048Y-110091485D01*
X123774048Y-110091485D02*
X124393095Y-110091485D01*
X123488333Y-112174819D02*
X123155000Y-111698628D01*
X122916905Y-112174819D02*
X122916905Y-111174819D01*
X122916905Y-111174819D02*
X123297857Y-111174819D01*
X123297857Y-111174819D02*
X123393095Y-111222438D01*
X123393095Y-111222438D02*
X123440714Y-111270057D01*
X123440714Y-111270057D02*
X123488333Y-111365295D01*
X123488333Y-111365295D02*
X123488333Y-111508152D01*
X123488333Y-111508152D02*
X123440714Y-111603390D01*
X123440714Y-111603390D02*
X123393095Y-111651009D01*
X123393095Y-111651009D02*
X123297857Y-111698628D01*
X123297857Y-111698628D02*
X122916905Y-111698628D01*
X124440714Y-112174819D02*
X123869286Y-112174819D01*
X124155000Y-112174819D02*
X124155000Y-111174819D01*
X124155000Y-111174819D02*
X124059762Y-111317676D01*
X124059762Y-111317676D02*
X123964524Y-111412914D01*
X123964524Y-111412914D02*
X123869286Y-111460533D01*
X119462142Y-110329580D02*
X119414523Y-110377200D01*
X119414523Y-110377200D02*
X119271666Y-110424819D01*
X119271666Y-110424819D02*
X119176428Y-110424819D01*
X119176428Y-110424819D02*
X119033571Y-110377200D01*
X119033571Y-110377200D02*
X118938333Y-110281961D01*
X118938333Y-110281961D02*
X118890714Y-110186723D01*
X118890714Y-110186723D02*
X118843095Y-109996247D01*
X118843095Y-109996247D02*
X118843095Y-109853390D01*
X118843095Y-109853390D02*
X118890714Y-109662914D01*
X118890714Y-109662914D02*
X118938333Y-109567676D01*
X118938333Y-109567676D02*
X119033571Y-109472438D01*
X119033571Y-109472438D02*
X119176428Y-109424819D01*
X119176428Y-109424819D02*
X119271666Y-109424819D01*
X119271666Y-109424819D02*
X119414523Y-109472438D01*
X119414523Y-109472438D02*
X119462142Y-109520057D01*
X120414523Y-110424819D02*
X119843095Y-110424819D01*
X120128809Y-110424819D02*
X120128809Y-109424819D01*
X120128809Y-109424819D02*
X120033571Y-109567676D01*
X120033571Y-109567676D02*
X119938333Y-109662914D01*
X119938333Y-109662914D02*
X119843095Y-109710533D01*
X121366904Y-110424819D02*
X120795476Y-110424819D01*
X121081190Y-110424819D02*
X121081190Y-109424819D01*
X121081190Y-109424819D02*
X120985952Y-109567676D01*
X120985952Y-109567676D02*
X120890714Y-109662914D01*
X120890714Y-109662914D02*
X120795476Y-109710533D01*
X133833333Y-105199580D02*
X133785714Y-105247200D01*
X133785714Y-105247200D02*
X133642857Y-105294819D01*
X133642857Y-105294819D02*
X133547619Y-105294819D01*
X133547619Y-105294819D02*
X133404762Y-105247200D01*
X133404762Y-105247200D02*
X133309524Y-105151961D01*
X133309524Y-105151961D02*
X133261905Y-105056723D01*
X133261905Y-105056723D02*
X133214286Y-104866247D01*
X133214286Y-104866247D02*
X133214286Y-104723390D01*
X133214286Y-104723390D02*
X133261905Y-104532914D01*
X133261905Y-104532914D02*
X133309524Y-104437676D01*
X133309524Y-104437676D02*
X133404762Y-104342438D01*
X133404762Y-104342438D02*
X133547619Y-104294819D01*
X133547619Y-104294819D02*
X133642857Y-104294819D01*
X133642857Y-104294819D02*
X133785714Y-104342438D01*
X133785714Y-104342438D02*
X133833333Y-104390057D01*
X134166667Y-104294819D02*
X134785714Y-104294819D01*
X134785714Y-104294819D02*
X134452381Y-104675771D01*
X134452381Y-104675771D02*
X134595238Y-104675771D01*
X134595238Y-104675771D02*
X134690476Y-104723390D01*
X134690476Y-104723390D02*
X134738095Y-104771009D01*
X134738095Y-104771009D02*
X134785714Y-104866247D01*
X134785714Y-104866247D02*
X134785714Y-105104342D01*
X134785714Y-105104342D02*
X134738095Y-105199580D01*
X134738095Y-105199580D02*
X134690476Y-105247200D01*
X134690476Y-105247200D02*
X134595238Y-105294819D01*
X134595238Y-105294819D02*
X134309524Y-105294819D01*
X134309524Y-105294819D02*
X134214286Y-105247200D01*
X134214286Y-105247200D02*
X134166667Y-105199580D01*
X123333333Y-106904819D02*
X122857143Y-106904819D01*
X122857143Y-106904819D02*
X122857143Y-105904819D01*
X123619048Y-106000057D02*
X123666667Y-105952438D01*
X123666667Y-105952438D02*
X123761905Y-105904819D01*
X123761905Y-105904819D02*
X124000000Y-105904819D01*
X124000000Y-105904819D02*
X124095238Y-105952438D01*
X124095238Y-105952438D02*
X124142857Y-106000057D01*
X124142857Y-106000057D02*
X124190476Y-106095295D01*
X124190476Y-106095295D02*
X124190476Y-106190533D01*
X124190476Y-106190533D02*
X124142857Y-106333390D01*
X124142857Y-106333390D02*
X123571429Y-106904819D01*
X123571429Y-106904819D02*
X124190476Y-106904819D01*
X149938095Y-100574819D02*
X149938095Y-101384342D01*
X149938095Y-101384342D02*
X149985714Y-101479580D01*
X149985714Y-101479580D02*
X150033333Y-101527200D01*
X150033333Y-101527200D02*
X150128571Y-101574819D01*
X150128571Y-101574819D02*
X150319047Y-101574819D01*
X150319047Y-101574819D02*
X150414285Y-101527200D01*
X150414285Y-101527200D02*
X150461904Y-101479580D01*
X150461904Y-101479580D02*
X150509523Y-101384342D01*
X150509523Y-101384342D02*
X150509523Y-100574819D01*
X151509523Y-101574819D02*
X150938095Y-101574819D01*
X151223809Y-101574819D02*
X151223809Y-100574819D01*
X151223809Y-100574819D02*
X151128571Y-100717676D01*
X151128571Y-100717676D02*
X151033333Y-100812914D01*
X151033333Y-100812914D02*
X150938095Y-100860533D01*
X119833333Y-104809580D02*
X119785714Y-104857200D01*
X119785714Y-104857200D02*
X119642857Y-104904819D01*
X119642857Y-104904819D02*
X119547619Y-104904819D01*
X119547619Y-104904819D02*
X119404762Y-104857200D01*
X119404762Y-104857200D02*
X119309524Y-104761961D01*
X119309524Y-104761961D02*
X119261905Y-104666723D01*
X119261905Y-104666723D02*
X119214286Y-104476247D01*
X119214286Y-104476247D02*
X119214286Y-104333390D01*
X119214286Y-104333390D02*
X119261905Y-104142914D01*
X119261905Y-104142914D02*
X119309524Y-104047676D01*
X119309524Y-104047676D02*
X119404762Y-103952438D01*
X119404762Y-103952438D02*
X119547619Y-103904819D01*
X119547619Y-103904819D02*
X119642857Y-103904819D01*
X119642857Y-103904819D02*
X119785714Y-103952438D01*
X119785714Y-103952438D02*
X119833333Y-104000057D01*
X120404762Y-104333390D02*
X120309524Y-104285771D01*
X120309524Y-104285771D02*
X120261905Y-104238152D01*
X120261905Y-104238152D02*
X120214286Y-104142914D01*
X120214286Y-104142914D02*
X120214286Y-104095295D01*
X120214286Y-104095295D02*
X120261905Y-104000057D01*
X120261905Y-104000057D02*
X120309524Y-103952438D01*
X120309524Y-103952438D02*
X120404762Y-103904819D01*
X120404762Y-103904819D02*
X120595238Y-103904819D01*
X120595238Y-103904819D02*
X120690476Y-103952438D01*
X120690476Y-103952438D02*
X120738095Y-104000057D01*
X120738095Y-104000057D02*
X120785714Y-104095295D01*
X120785714Y-104095295D02*
X120785714Y-104142914D01*
X120785714Y-104142914D02*
X120738095Y-104238152D01*
X120738095Y-104238152D02*
X120690476Y-104285771D01*
X120690476Y-104285771D02*
X120595238Y-104333390D01*
X120595238Y-104333390D02*
X120404762Y-104333390D01*
X120404762Y-104333390D02*
X120309524Y-104381009D01*
X120309524Y-104381009D02*
X120261905Y-104428628D01*
X120261905Y-104428628D02*
X120214286Y-104523866D01*
X120214286Y-104523866D02*
X120214286Y-104714342D01*
X120214286Y-104714342D02*
X120261905Y-104809580D01*
X120261905Y-104809580D02*
X120309524Y-104857200D01*
X120309524Y-104857200D02*
X120404762Y-104904819D01*
X120404762Y-104904819D02*
X120595238Y-104904819D01*
X120595238Y-104904819D02*
X120690476Y-104857200D01*
X120690476Y-104857200D02*
X120738095Y-104809580D01*
X120738095Y-104809580D02*
X120785714Y-104714342D01*
X120785714Y-104714342D02*
X120785714Y-104523866D01*
X120785714Y-104523866D02*
X120738095Y-104428628D01*
X120738095Y-104428628D02*
X120690476Y-104381009D01*
X120690476Y-104381009D02*
X120595238Y-104333390D01*
X116833333Y-108579580D02*
X116785714Y-108627200D01*
X116785714Y-108627200D02*
X116642857Y-108674819D01*
X116642857Y-108674819D02*
X116547619Y-108674819D01*
X116547619Y-108674819D02*
X116404762Y-108627200D01*
X116404762Y-108627200D02*
X116309524Y-108531961D01*
X116309524Y-108531961D02*
X116261905Y-108436723D01*
X116261905Y-108436723D02*
X116214286Y-108246247D01*
X116214286Y-108246247D02*
X116214286Y-108103390D01*
X116214286Y-108103390D02*
X116261905Y-107912914D01*
X116261905Y-107912914D02*
X116309524Y-107817676D01*
X116309524Y-107817676D02*
X116404762Y-107722438D01*
X116404762Y-107722438D02*
X116547619Y-107674819D01*
X116547619Y-107674819D02*
X116642857Y-107674819D01*
X116642857Y-107674819D02*
X116785714Y-107722438D01*
X116785714Y-107722438D02*
X116833333Y-107770057D01*
X117690476Y-108008152D02*
X117690476Y-108674819D01*
X117452381Y-107627200D02*
X117214286Y-108341485D01*
X117214286Y-108341485D02*
X117833333Y-108341485D01*
X116833333Y-106809580D02*
X116785714Y-106857200D01*
X116785714Y-106857200D02*
X116642857Y-106904819D01*
X116642857Y-106904819D02*
X116547619Y-106904819D01*
X116547619Y-106904819D02*
X116404762Y-106857200D01*
X116404762Y-106857200D02*
X116309524Y-106761961D01*
X116309524Y-106761961D02*
X116261905Y-106666723D01*
X116261905Y-106666723D02*
X116214286Y-106476247D01*
X116214286Y-106476247D02*
X116214286Y-106333390D01*
X116214286Y-106333390D02*
X116261905Y-106142914D01*
X116261905Y-106142914D02*
X116309524Y-106047676D01*
X116309524Y-106047676D02*
X116404762Y-105952438D01*
X116404762Y-105952438D02*
X116547619Y-105904819D01*
X116547619Y-105904819D02*
X116642857Y-105904819D01*
X116642857Y-105904819D02*
X116785714Y-105952438D01*
X116785714Y-105952438D02*
X116833333Y-106000057D01*
X117214286Y-106000057D02*
X117261905Y-105952438D01*
X117261905Y-105952438D02*
X117357143Y-105904819D01*
X117357143Y-105904819D02*
X117595238Y-105904819D01*
X117595238Y-105904819D02*
X117690476Y-105952438D01*
X117690476Y-105952438D02*
X117738095Y-106000057D01*
X117738095Y-106000057D02*
X117785714Y-106095295D01*
X117785714Y-106095295D02*
X117785714Y-106190533D01*
X117785714Y-106190533D02*
X117738095Y-106333390D01*
X117738095Y-106333390D02*
X117166667Y-106904819D01*
X117166667Y-106904819D02*
X117785714Y-106904819D01*
X116833333Y-112079580D02*
X116785714Y-112127200D01*
X116785714Y-112127200D02*
X116642857Y-112174819D01*
X116642857Y-112174819D02*
X116547619Y-112174819D01*
X116547619Y-112174819D02*
X116404762Y-112127200D01*
X116404762Y-112127200D02*
X116309524Y-112031961D01*
X116309524Y-112031961D02*
X116261905Y-111936723D01*
X116261905Y-111936723D02*
X116214286Y-111746247D01*
X116214286Y-111746247D02*
X116214286Y-111603390D01*
X116214286Y-111603390D02*
X116261905Y-111412914D01*
X116261905Y-111412914D02*
X116309524Y-111317676D01*
X116309524Y-111317676D02*
X116404762Y-111222438D01*
X116404762Y-111222438D02*
X116547619Y-111174819D01*
X116547619Y-111174819D02*
X116642857Y-111174819D01*
X116642857Y-111174819D02*
X116785714Y-111222438D01*
X116785714Y-111222438D02*
X116833333Y-111270057D01*
X117690476Y-111174819D02*
X117500000Y-111174819D01*
X117500000Y-111174819D02*
X117404762Y-111222438D01*
X117404762Y-111222438D02*
X117357143Y-111270057D01*
X117357143Y-111270057D02*
X117261905Y-111412914D01*
X117261905Y-111412914D02*
X117214286Y-111603390D01*
X117214286Y-111603390D02*
X117214286Y-111984342D01*
X117214286Y-111984342D02*
X117261905Y-112079580D01*
X117261905Y-112079580D02*
X117309524Y-112127200D01*
X117309524Y-112127200D02*
X117404762Y-112174819D01*
X117404762Y-112174819D02*
X117595238Y-112174819D01*
X117595238Y-112174819D02*
X117690476Y-112127200D01*
X117690476Y-112127200D02*
X117738095Y-112079580D01*
X117738095Y-112079580D02*
X117785714Y-111984342D01*
X117785714Y-111984342D02*
X117785714Y-111746247D01*
X117785714Y-111746247D02*
X117738095Y-111651009D01*
X117738095Y-111651009D02*
X117690476Y-111603390D01*
X117690476Y-111603390D02*
X117595238Y-111555771D01*
X117595238Y-111555771D02*
X117404762Y-111555771D01*
X117404762Y-111555771D02*
X117309524Y-111603390D01*
X117309524Y-111603390D02*
X117261905Y-111651009D01*
X117261905Y-111651009D02*
X117214286Y-111746247D01*
X116988333Y-113829580D02*
X116940714Y-113877200D01*
X116940714Y-113877200D02*
X116797857Y-113924819D01*
X116797857Y-113924819D02*
X116702619Y-113924819D01*
X116702619Y-113924819D02*
X116559762Y-113877200D01*
X116559762Y-113877200D02*
X116464524Y-113781961D01*
X116464524Y-113781961D02*
X116416905Y-113686723D01*
X116416905Y-113686723D02*
X116369286Y-113496247D01*
X116369286Y-113496247D02*
X116369286Y-113353390D01*
X116369286Y-113353390D02*
X116416905Y-113162914D01*
X116416905Y-113162914D02*
X116464524Y-113067676D01*
X116464524Y-113067676D02*
X116559762Y-112972438D01*
X116559762Y-112972438D02*
X116702619Y-112924819D01*
X116702619Y-112924819D02*
X116797857Y-112924819D01*
X116797857Y-112924819D02*
X116940714Y-112972438D01*
X116940714Y-112972438D02*
X116988333Y-113020057D01*
X117321667Y-112924819D02*
X117988333Y-112924819D01*
X117988333Y-112924819D02*
X117559762Y-113924819D01*
D11*
%TO.C,X2*%
X159080000Y-111830000D02*
X159080000Y-113100000D01*
X159080000Y-111830000D02*
X166920000Y-111830000D01*
X159080000Y-116170000D02*
X159080000Y-114900000D01*
X159080000Y-116170000D02*
X166920000Y-116170000D01*
X166920000Y-111830000D02*
X166920000Y-113100000D01*
X166920000Y-116170000D02*
X166920000Y-114900000D01*
%TO.C,L1*%
X134049721Y-102490000D02*
X134375279Y-102490000D01*
X134049721Y-103510000D02*
X134375279Y-103510000D01*
%TO.C,C3*%
X133892164Y-105640000D02*
X134107836Y-105640000D01*
X133892164Y-106360000D02*
X134107836Y-106360000D01*
%TO.C,U1*%
X147590000Y-102890000D02*
X147590000Y-102580000D01*
X147590000Y-108560000D02*
X147590000Y-108010000D01*
X148140000Y-102340000D02*
X147890000Y-102340000D01*
X148140000Y-108560000D02*
X147590000Y-108560000D01*
X153260000Y-102340000D02*
X153810000Y-102340000D01*
X153260000Y-108560000D02*
X153810000Y-108560000D01*
X153810000Y-102340000D02*
X153810000Y-102890000D01*
X153810000Y-108560000D02*
X153810000Y-108010000D01*
X147590000Y-102340000D02*
X147350000Y-102010000D01*
X147830000Y-102010000D01*
X147590000Y-102340000D01*
G36*
X147590000Y-102340000D02*
G01*
X147350000Y-102010000D01*
X147830000Y-102010000D01*
X147590000Y-102340000D01*
G37*
%TD*%
M02*
